<?xml version="1.0" encoding="utf-8"?>
<!-- Generator: Adobe Illustrator 26.2.1, SVG Export Plug-In . SVG Version: 6.00 Build 0)  -->
<svg version="1.1" id="Layer_1" xmlns="http://www.w3.org/2000/svg" xmlns:xlink="http://www.w3.org/1999/xlink" x="0px" y="0px"
	 viewBox="0 0 819.86 256.21" style="enable-background:new 0 0 819.86 256.21;" xml:space="preserve">
<style type="text/css">
	.st0{fill:#274C94;}
	.st1{fill:#562878;}
	.st2{fill:#2375B6;}
	.st3{fill:#413382;}
	.st4{fill:#443D3B;}
</style>
<g>
	<g>
		<g>
			<path class="st0" d="M142.21,181.37c0.53,2.41-0.99,4.79-3.39,5.33c-2.41,0.53-4.79-0.99-5.33-3.4c-0.53-2.41,0.99-4.79,3.4-5.33
				C139.29,177.44,141.67,178.96,142.21,181.37z"/>
			<g>
				<path class="st0" d="M118.68,75.23c0.53,2.41-0.99,4.79-3.39,5.33c-2.41,0.53-4.79-0.99-5.33-3.39
					c-0.53-2.41,0.99-4.79,3.39-5.33C115.76,71.3,118.14,72.82,118.68,75.23z"/>
				<path class="st0" d="M72.04,136.67c2.41-0.53,4.79,0.99,5.33,3.39c0.53,2.41-0.99,4.79-3.39,5.33
					c-2.41,0.53-4.79-0.99-5.33-3.39C68.11,139.59,69.63,137.2,72.04,136.67z"/>
				<path class="st0" d="M178.18,113.14c2.41-0.53,4.79,0.99,5.33,3.4c0.53,2.41-0.99,4.79-3.39,5.33
					c-2.41,0.53-4.79-0.99-5.33-3.39C174.25,116.06,175.77,113.67,178.18,113.14z"/>
				<path class="st0" d="M82.63,96.29c2.08,1.33,2.69,4.09,1.37,6.17c-1.33,2.08-4.09,2.69-6.17,1.37
					c-2.08-1.33-2.69-4.09-1.37-6.17C77.79,95.58,80.55,94.97,82.63,96.29z"/>
				<path class="st0" d="M174.33,154.71c2.08,1.33,2.69,4.09,1.37,6.17c-1.33,2.08-4.09,2.69-6.17,1.37
					c-2.08-1.33-2.69-4.09-1.37-6.17C169.48,153.99,172.24,153.38,174.33,154.71z"/>
				<path class="st0" d="M93.1,172.71c1.33-2.08,4.09-2.69,6.17-1.37c2.08,1.33,2.69,4.09,1.37,6.17c-1.33,2.08-4.09,2.69-6.17,1.37
					C92.39,177.55,91.78,174.79,93.1,172.71z"/>
				<path class="st0" d="M151.52,81.02c1.33-2.08,4.09-2.69,6.17-1.37c2.08,1.33,2.69,4.09,1.37,6.17
					c-1.33,2.08-4.09,2.69-6.17,1.37C150.8,85.86,150.19,83.1,151.52,81.02z"/>
				<path class="st0" d="M98.56,82.18c1.42,2.02,0.92,4.81-1.1,6.22c-2.02,1.42-4.81,0.92-6.22-1.1c-1.42-2.02-0.92-4.81,1.1-6.22
					C94.36,79.66,97.15,80.16,98.56,82.18z"/>
				<path class="st0" d="M160.92,171.23c1.42,2.02,0.92,4.81-1.1,6.22c-2.02,1.42-4.81,0.92-6.22-1.1c-1.42-2.02-0.92-4.81,1.1-6.22
					C156.72,168.72,159.5,169.21,160.92,171.23z"/>
				<path class="st0" d="M78.99,156.79c2.02-1.42,4.81-0.92,6.22,1.1c1.42,2.02,0.92,4.81-1.1,6.22c-2.02,1.42-4.81,0.92-6.22-1.1
					C76.48,160.99,76.97,158.2,78.99,156.79z"/>
				<path class="st0" d="M168.04,94.43c2.02-1.42,4.81-0.92,6.22,1.1s0.92,4.81-1.1,6.22c-2.02,1.42-4.81,0.92-6.22-1.1
					C165.53,98.63,166.02,95.84,168.04,94.43z"/>
				<path class="st0" d="M73.32,115.43c2.43,0.43,4.05,2.75,3.62,5.18c-0.43,2.43-2.75,4.05-5.18,3.62
					c-2.43-0.43-4.05-2.75-3.62-5.18C68.58,116.62,70.89,115,73.32,115.43z"/>
				<path class="st0" d="M180.39,134.31c2.43,0.43,4.05,2.75,3.62,5.18c-0.43,2.43-2.75,4.05-5.18,3.62
					c-2.43-0.43-4.05-2.75-3.62-5.18C175.64,135.5,177.96,133.88,180.39,134.31z"/>
				<path class="st0" d="M112.24,182.02c0.43-2.43,2.75-4.05,5.18-3.62c2.43,0.43,4.05,2.75,3.62,5.18
					c-0.43,2.43-2.75,4.05-5.18,3.62C113.43,186.77,111.81,184.45,112.24,182.02z"/>
				<path class="st0" d="M131.12,74.96c0.43-2.43,2.75-4.05,5.18-3.62c2.43,0.43,4.05,2.75,3.62,5.18
					c-0.43,2.43-2.75,4.05-5.18,3.62C132.31,79.71,130.69,77.39,131.12,74.96z"/>
			</g>
		</g>
		<g>
			<g>
				<path class="st1" d="M70.57,46.35c2.16,2.82,1.63,6.86-1.19,9.02c-2.82,2.16-6.86,1.63-9.02-1.19
					c-2.16-2.82-1.63-6.86,1.19-9.02C64.37,43,68.4,43.54,70.57,46.35z"/>
				<path class="st1" d="M191.8,204.35c2.16,2.82,1.63,6.86-1.19,9.02c-2.82,2.16-6.86,1.63-9.02-1.19
					c-2.16-2.82-1.63-6.86,1.19-9.02C185.6,201,189.64,201.53,191.8,204.35z"/>
				<path class="st1" d="M43.17,184.78c2.82-2.16,6.86-1.63,9.02,1.19c2.16,2.82,1.63,6.86-1.19,9.02
					c-2.82,2.16-6.86,1.63-9.02-1.19C39.82,190.98,40.35,186.94,43.17,184.78z"/>
				<path class="st1" d="M201.16,63.55c2.82-2.16,6.86-1.63,9.02,1.19c2.16,2.82,1.63,6.86-1.19,9.02
					c-2.82,2.16-6.86,1.63-9.02-1.19C197.81,69.75,198.34,65.71,201.16,63.55z"/>
			</g>
			<g>
				<path class="st1" d="M28.2,109.89c3.52,0.46,6,3.7,5.54,7.22c-0.46,3.52-3.7,6-7.22,5.54c-3.52-0.46-6-3.7-5.54-7.22
					C21.44,111.91,24.68,109.43,28.2,109.89z"/>
				<path class="st1" d="M225.64,135.89c3.52,0.46,6,3.7,5.54,7.22c-0.46,3.52-3.7,6-7.22,5.54c-3.52-0.46-6-3.7-5.54-7.22
					C218.88,137.9,222.12,135.42,225.64,135.89z"/>
				<path class="st1" d="M106.7,227.15c0.46-3.52,3.7-6,7.22-5.54c3.52,0.46,6,3.7,5.54,7.22c-0.46,3.52-3.7,6-7.22,5.54
					C108.72,233.9,106.24,230.67,106.7,227.15z"/>
				<path class="st1" d="M132.7,29.71c0.46-3.52,3.7-6,7.22-5.54c3.52,0.46,6,3.7,5.54,7.22c-0.46,3.52-3.7,6-7.22,5.54
					S132.23,33.23,132.7,29.71z"/>
			</g>
			<g>
				<path class="st1" d="M43.06,73.91c3.08,1.78,4.13,5.71,2.35,8.79c-1.78,3.08-5.71,4.13-8.79,2.35
					c-3.08-1.78-4.13-5.71-2.35-8.79C36.05,73.19,39.99,72.13,43.06,73.91z"/>
				<path class="st1" d="M215.53,173.48c3.08,1.78,4.13,5.71,2.35,8.79c-1.78,3.08-5.71,4.13-8.79,2.35
					c-3.08-1.78-4.13-5.71-2.35-8.79C208.52,172.76,212.45,171.71,215.53,173.48z"/>
				<path class="st1" d="M70.72,212.28c1.78-3.08,5.71-4.13,8.79-2.35c3.08,1.78,4.13,5.71,2.35,8.79
					c-1.78,3.08-5.71,4.13-8.79,2.35C70,219.29,68.95,215.36,70.72,212.28z"/>
				<path class="st1" d="M170.29,39.82c1.78-3.08,5.71-4.13,8.79-2.35c3.08,1.78,4.13,5.71,2.35,8.79
					c-1.78,3.08-5.71,4.13-8.79,2.35C169.57,46.83,168.52,42.9,170.29,39.82z"/>
			</g>
			<g>
				<path class="st1" d="M28.23,148.82c3.43-0.92,6.96,1.12,7.88,4.55c0.92,3.43-1.12,6.96-4.55,7.88
					c-3.43,0.92-6.96-1.12-7.88-4.55C22.77,153.27,24.8,149.74,28.23,148.82z"/>
				<path class="st1" d="M220.59,97.28c3.43-0.92,6.96,1.12,7.88,4.55c0.92,3.43-1.12,6.96-4.55,7.88
					c-3.43,0.92-6.96-1.12-7.88-4.55C215.12,101.73,217.16,98.2,220.59,97.28z"/>
				<path class="st1" d="M145.64,227.11c-0.92-3.43,1.12-6.96,4.55-7.88c3.43-0.92,6.96,1.12,7.88,4.55
					c0.92,3.43-1.12,6.96-4.55,7.88C150.08,232.58,146.56,230.54,145.64,227.11z"/>
				<path class="st1" d="M94.09,34.75c-0.92-3.43,1.12-6.96,4.55-7.88c3.43-0.92,6.96,1.12,7.88,4.55c0.92,3.43-1.12,6.96-4.55,7.88
					C98.54,40.22,95.01,38.19,94.09,34.75z"/>
			</g>
		</g>
		<g>
			<g>
				<rect x="122.72" y="88.67" class="st2" width="6.72" height="6.72"/>
				<rect x="122.72" y="163.14" class="st2" width="6.72" height="6.72"/>
				
					<rect x="85.49" y="125.91" transform="matrix(6.123234e-17 -1 1 6.123234e-17 -40.4193 218.115)" class="st2" width="6.72" height="6.72"/>
				
					<rect x="159.95" y="125.91" transform="matrix(6.123234e-17 -1 1 6.123234e-17 34.0438 292.5781)" class="st2" width="6.72" height="6.72"/>
			</g>
			<g>
				
					<rect x="96.39" y="99.58" transform="matrix(0.7071 -0.7071 0.7071 0.7071 -43.5729 100.6835)" class="st2" width="6.72" height="6.72"/>
				
					<rect x="149.04" y="152.23" transform="matrix(0.7071 -0.7071 0.7071 0.7071 -65.3827 153.3398)" class="st2" width="6.72" height="6.72"/>
				
					<rect x="96.39" y="152.23" transform="matrix(-0.7071 -0.7071 0.7071 -0.7071 60.2671 336.151)" class="st2" width="6.72" height="6.72"/>
				
					<rect x="149.04" y="99.58" transform="matrix(-0.7071 -0.7071 0.7071 -0.7071 187.3837 283.4977)" class="st2" width="6.72" height="6.72"/>
			</g>
		</g>
		<g>
			<g>
				
					<rect x="108.47" y="91.51" transform="matrix(0.9239 -0.3827 0.3827 0.9239 -27.7926 50.0183)" class="st2" width="6.72" height="6.72"/>
				
					<rect x="136.97" y="160.3" transform="matrix(0.9239 -0.3827 0.3827 0.9239 -51.9505 66.1601)" class="st2" width="6.72" height="6.72"/>
				
					<rect x="88.32" y="140.15" transform="matrix(-0.3827 -0.9239 0.9239 -0.3827 -5.8242 283.1384)" class="st2" width="6.72" height="6.72"/>
				
					<rect x="157.12" y="111.66" transform="matrix(-0.3827 -0.9239 0.9239 -0.3827 115.6308 307.2979)" class="st2" width="6.72" height="6.72"/>
			</g>
			<g>
				
					<rect x="88.32" y="111.66" transform="matrix(0.3827 -0.9239 0.9239 0.3827 -49.6669 155.7072)" class="st2" width="6.72" height="6.72"/>
				
					<rect x="157.12" y="140.15" transform="matrix(0.3827 -0.9239 0.9239 0.3827 -33.5274 236.8516)" class="st2" width="6.72" height="6.72"/>
				
					<rect x="108.47" y="160.3" transform="matrix(-0.9239 -0.3827 0.3827 -0.9239 152.5177 357.6673)" class="st2" width="6.72" height="6.72"/>
				
					<rect x="136.97" y="91.51" transform="matrix(-0.9239 -0.3827 0.3827 -0.9239 233.6671 236.2191)" class="st2" width="6.72" height="6.72"/>
			</g>
		</g>
		<g>
			<g>
				<g>
					
						<rect x="89.27" y="56.22" transform="matrix(0.9063 -0.4226 0.4226 0.9063 -17.092 45.6547)" class="st3" width="10.31" height="10.31"/>
					
						<rect x="152.58" y="192" transform="matrix(0.9063 -0.4226 0.4226 0.9063 -68.5442 85.1353)" class="st3" width="10.31" height="10.31"/>
				</g>
				<g>
					
						<rect x="53.03" y="155.77" transform="matrix(-0.4226 -0.9063 0.9063 -0.4226 -63.0685 281.6718)" class="st3" width="10.31" height="10.31"/>
					
						<rect x="188.82" y="92.45" transform="matrix(-0.4226 -0.9063 0.9063 -0.4226 187.483 314.6573)" class="st3" width="10.31" height="10.31"/>
				</g>
			</g>
			<g>
				<g>
					
						<rect x="50.53" y="98.49" transform="matrix(0.342 -0.9397 0.9397 0.342 -60.7547 120.5265)" class="st3" width="10.31" height="10.31"/>
					
						<rect x="191.32" y="149.73" transform="matrix(0.342 -0.9397 0.9397 0.342 -16.2735 286.5345)" class="st3" width="10.31" height="10.31"/>
				</g>
				<g>
					
						<rect x="95.3" y="194.5" transform="matrix(-0.9397 -0.342 0.342 -0.9397 126.57 421.6369)" class="st3" width="10.31" height="10.31"/>
					
						<rect x="146.55" y="53.72" transform="matrix(-0.9397 -0.342 0.342 -0.9397 274.1155 166.0832)" class="st3" width="10.31" height="10.31"/>
				</g>
			</g>
		</g>
		<g>
			<g>
				<g>
					
						<rect x="65.7" y="73.5" transform="matrix(0.6756 -0.7373 0.7373 0.6756 -35.0089 77.7536)" class="st3" width="10.31" height="10.31"/>
					
						<rect x="176.15" y="174.72" transform="matrix(0.6756 -0.7373 0.7373 0.6756 -73.7998 192.0277)" class="st3" width="10.31" height="10.31"/>
				</g>
				<g>
					
						<rect x="70.32" y="179.34" transform="matrix(-0.7373 -0.6756 0.6756 -0.7373 6.4698 371.5089)" class="st3" width="10.31" height="10.31"/>
					
						<rect x="171.53" y="68.88" transform="matrix(-0.7373 -0.6756 0.6756 -0.7373 256.9341 247.9939)" class="st3" width="10.31" height="10.31"/>
				</g>
			</g>
			<g>
				<g>
					
						<rect x="46.09" y="127.38" transform="matrix(-0.0436 -0.999 0.999 -0.0436 -78.9329 189.5069)" class="st3" width="10.31" height="10.31"/>
					
						<rect x="195.76" y="120.84" transform="matrix(-0.0436 -0.999 0.999 -0.0436 83.8046 332.2237)" class="st3" width="10.31" height="10.31"/>
				</g>
				<g>
					
						<rect x="124.19" y="198.95" transform="matrix(-0.999 0.0436 -0.0436 -0.999 267.4725 402.3759)" class="st3" width="10.31" height="10.31"/>
					
						<rect x="117.66" y="49.27" transform="matrix(-0.999 0.0436 -0.0436 -0.999 247.8807 103.4491)" class="st3" width="10.31" height="10.31"/>
				</g>
			</g>
		</g>
	</g>
	<g>
		<path class="st4" d="M312.3,72.87c-6.88,0-12.09,2.9-15.64,8.68c-2.43-5.79-6.93-8.68-13.5-8.68c-3.18,0-6.12,0.78-8.8,2.34
			c-2.68,1.56-4.77,3.58-6.25,6.07h-0.18v-7.27h-14.37v46.56h14.37V94.7c0-3.33,0.73-5.97,2.2-7.91c1.47-1.94,3.43-2.91,5.89-2.91
			c4.88,0,7.32,3.29,7.32,9.87v26.82h14.37V94.52c0-3.03,0.74-5.56,2.23-7.59c1.48-2.03,3.41-3.05,5.77-3.05
			c4.97,0,7.46,3.38,7.46,10.14v26.55h14.32V91.61C327.49,79.12,322.43,72.87,312.3,72.87z"/>
		<path class="st4" d="M377.59,120.57V92.74c0-13.25-6.64-19.87-19.91-19.87c-2.85,0-6.01,0.39-9.48,1.18
			c-3.47,0.79-6.21,1.7-8.21,2.73v10.82c5-3.3,10.27-4.96,15.82-4.96c5.52,0,8.27,2.55,8.27,7.64l-12.64,1.68
			c-10.7,1.39-16.05,6.61-16.05,15.64c0,4.27,1.3,7.69,3.89,10.25c2.59,2.56,6.14,3.84,10.66,3.84c6.12,0,10.74-2.61,13.87-7.82H364
			v6.68H377.59z M361.54,108.72c-1.7,1.86-3.9,2.8-6.59,2.8c-1.94,0-3.48-0.52-4.61-1.57c-1.14-1.05-1.7-2.39-1.7-4.02
			c0-3.61,2.33-5.71,7-6.32l8.46-1.09v3.14C364.09,104.5,363.24,106.86,361.54,108.72z"/>
		<path class="st4" d="M434.6,115.25V74.01h-14.37v5.41h-0.18c-2.82-4.36-7.06-6.55-12.73-6.55c-6.34,0-11.44,2.32-15.32,6.96
			c-3.88,4.64-5.82,10.9-5.82,18.78c0,7.03,1.74,12.64,5.23,16.82c3.49,4.18,8.2,6.27,14.14,6.27c6.4,0,11.23-2.61,14.5-7.82h0.18
			v3.68c0,4.39-1.33,7.87-4,10.43c-2.67,2.56-6.43,3.84-11.28,3.84c-4.88,0-9.71-1.39-14.5-4.18v12.09
			c3.67,1.79,8.64,2.68,14.91,2.68c9.49,0,16.73-2.37,21.73-7.12C432.1,130.58,434.6,123.89,434.6,115.25z M420.42,98.2
			c0,3.76-0.92,6.78-2.75,9.07c-1.83,2.29-4.24,3.43-7.21,3.43c-3,0-5.36-1.13-7.09-3.39c-1.73-2.26-2.59-5.33-2.59-9.21
			c0-4.52,0.91-8.02,2.73-10.5c1.82-2.48,4.32-3.73,7.5-3.73c2.79,0,5.05,1.04,6.8,3.11c1.74,2.08,2.61,4.58,2.61,7.52V98.2z"/>
		<path class="st4" d="M459.86,53.92c-1.53-1.36-3.52-2.05-5.98-2.05c-2.43,0-4.41,0.68-5.96,2.05c-1.55,1.36-2.32,3.12-2.32,5.27
			c0,2.09,0.77,3.86,2.32,5.3c1.55,1.44,3.53,2.16,5.96,2.16c2.45,0,4.45-0.7,5.98-2.09c1.53-1.39,2.3-3.18,2.3-5.36
			C462.16,57.04,461.39,55.28,459.86,53.92z"/>
		<rect x="446.61" y="74.01" class="st4" width="14.37" height="46.56"/>
		<path class="st4" d="M477.41,79.72c-4.74,4.56-7.12,10.8-7.12,18.71c0,6.85,2.21,12.44,6.64,16.78c4.42,4.33,10.21,6.5,17.37,6.5
			c6.12,0,10.81-0.94,14.05-2.82v-11.55c-3.43,2.24-6.93,3.36-10.5,3.36c-4.03,0-7.2-1.17-9.5-3.52c-2.3-2.35-3.46-5.58-3.46-9.71
			c0-4.24,1.2-7.57,3.61-9.98c2.41-2.41,5.68-3.61,9.8-3.61c3.7,0,7.05,1.12,10.05,3.36V75.06c-2.46-1.45-6.43-2.18-11.91-2.18
			C488.49,72.87,482.15,75.16,477.41,79.72z"/>
		<path class="st4" d="M583.74,74.56l-6.05,30.37c-0.33,1.76-0.58,3.52-0.73,5.27h-0.32c-0.24-2.76-0.45-4.52-0.64-5.27l-7.18-30.37
			h-13.68l-8,30.19c-0.39,1.45-0.67,3.24-0.82,5.36h-0.27c-0.15-2.03-0.38-3.76-0.68-5.18l-6.41-30.37h-14.64l13.14,46.56h14.91
			l7.37-27.46c0.39-1.48,0.7-3.41,0.91-5.77h0.27c0.06,2.15,0.32,4.14,0.77,5.96l6.87,27.28h15.09l13.41-46.56H583.74z"/>
		<path class="st4" d="M648.58,121.12v-28.6c0-12.73-5.27-19.1-15.82-19.1c-6.03,0-10.81,2.68-14.32,8.05h-0.18V52.19h-14.37v68.92
			h14.37V94.57c0-2.94,0.79-5.36,2.36-7.27c1.58-1.91,3.64-2.86,6.18-2.86c4.97,0,7.46,3.41,7.46,10.23v26.46H648.58z"/>
		<path class="st4" d="M680.45,73.43c-6.55,0-12.06,2.26-16.55,6.77c-4.49,4.52-6.73,10.64-6.73,18.37c0,7.46,2.08,13.27,6.23,17.44
			c4.15,4.17,9.99,6.25,17.5,6.25c6.88,0,12.47-1.15,16.78-3.46v-10.37c-3.88,2.43-8.38,3.64-13.5,3.64
			c-8.03,0-12.29-3.38-12.78-10.14h30.37v-6.05c0-6.91-1.86-12.38-5.57-16.41C692.49,75.44,687.24,73.43,680.45,73.43z
			 M671.31,93.11c0.36-2.85,1.39-5.23,3.07-7.14c1.68-1.91,3.68-2.86,5.98-2.86c5.39,0,8.09,3.33,8.09,10H671.31z"/>
		<path class="st4" d="M730.82,73.43c-6.55,0-12.06,2.26-16.55,6.77c-4.49,4.52-6.73,10.64-6.73,18.37c0,7.46,2.08,13.27,6.23,17.44
			c4.15,4.17,9.99,6.25,17.5,6.25c6.88,0,12.47-1.15,16.78-3.46v-10.37c-3.88,2.43-8.38,3.64-13.5,3.64
			c-8.03,0-12.29-3.38-12.78-10.14h30.37v-6.05c0-6.91-1.86-12.38-5.57-16.41C742.86,75.44,737.61,73.43,730.82,73.43z
			 M721.69,93.11c0.36-2.85,1.39-5.23,3.07-7.14c1.68-1.91,3.67-2.86,5.98-2.86c5.39,0,8.09,3.33,8.09,10H721.69z"/>
		<rect x="760.69" y="52.19" class="st4" width="14.37" height="68.92"/>
		<polygon class="st4" points="254.17,157.76 258.6,157.76 258.6,170.5 262.12,170.5 262.12,157.76 266.57,157.76 266.57,154.9 
			254.17,154.9 		"/>
		<polygon class="st4" points="315.6,164.08 320.7,164.08 320.7,161.23 315.6,161.23 315.6,157.76 321.08,157.76 321.08,154.9 
			312.09,154.9 312.09,170.5 321.44,170.5 321.44,167.65 315.6,167.65 		"/>
		<path class="st4" d="M369.38,156.97c-1.54,1.55-2.31,3.57-2.31,6.07c0,2.34,0.68,4.21,2.05,5.62c1.37,1.41,3.25,2.11,5.64,2.11
			c1.83,0,3.32-0.28,4.46-0.83v-3.21c-1.14,0.67-2.39,1-3.76,1c-1.44,0-2.58-0.45-3.42-1.34c-0.85-0.9-1.27-2.1-1.27-3.6
			c0-1.57,0.45-2.82,1.35-3.74c0.9-0.92,2.08-1.38,3.54-1.38c1.33,0,2.52,0.31,3.57,0.93v-3.38c-1.04-0.38-2.33-0.58-3.85-0.58
			C372.92,154.64,370.92,155.42,369.38,156.97z"/>
		<polygon class="st4" points="432.76,161.12 426.31,161.12 426.31,154.9 422.79,154.9 422.79,170.5 426.31,170.5 426.31,164.15 
			432.76,164.15 432.76,170.5 436.29,170.5 436.29,154.9 432.76,154.9 		"/>
		<path class="st4" d="M489.63,163.53c0,1.07,0.03,1.78,0.09,2.14h-0.04c-0.24-0.42-0.5-0.84-0.78-1.27l-6.19-9.49h-3.78v15.59h3.32
			v-8.57c0-1.13-0.03-1.97-0.09-2.52h0.04c0.14,0.29,0.41,0.72,0.78,1.29l6.43,9.8h3.54V154.9h-3.32V163.53z"/>
		<path class="st4" d="M542.5,154.64c-2.36,0-4.25,0.76-5.68,2.28c-1.43,1.52-2.14,3.52-2.14,5.98c0,2.33,0.7,4.23,2.11,5.68
			c1.41,1.45,3.23,2.18,5.46,2.18c2.29,0,4.15-0.75,5.57-2.25c1.42-1.5,2.14-3.48,2.14-5.93c0-2.38-0.69-4.31-2.06-5.76
			C546.52,155.37,544.72,154.64,542.5,154.64z M545.2,166.42c-0.71,0.87-1.67,1.31-2.88,1.31c-1.17,0-2.12-0.45-2.85-1.35
			c-0.72-0.9-1.09-2.12-1.09-3.66c0-1.52,0.36-2.75,1.09-3.67c0.72-0.92,1.7-1.39,2.94-1.39c1.2,0,2.14,0.45,2.83,1.35
			c0.69,0.9,1.03,2.16,1.03,3.77C546.26,164.34,545.91,165.55,545.2,166.42z"/>
		<polygon class="st4" points="597.58,154.9 594.07,154.9 594.07,170.5 603.35,170.5 603.35,167.65 597.58,167.65 		"/>
		<path class="st4" d="M655.28,154.64c-2.36,0-4.25,0.76-5.68,2.28c-1.43,1.52-2.14,3.52-2.14,5.98c0,2.33,0.7,4.23,2.11,5.68
			c1.41,1.45,3.23,2.18,5.46,2.18c2.29,0,4.15-0.75,5.57-2.25c1.42-1.5,2.14-3.48,2.14-5.93c0-2.38-0.69-4.31-2.06-5.76
			C659.3,155.37,657.5,154.64,655.28,154.64z M657.97,166.42c-0.71,0.87-1.67,1.31-2.88,1.31c-1.17,0-2.12-0.45-2.85-1.35
			c-0.72-0.9-1.09-2.12-1.09-3.66c0-1.52,0.36-2.75,1.09-3.67c0.72-0.92,1.7-1.39,2.94-1.39c1.2,0,2.14,0.45,2.83,1.35
			c0.69,0.9,1.03,2.16,1.03,3.77C659.04,164.34,658.69,165.55,657.97,166.42z"/>
		<path class="st4" d="M711.74,164.42h3.12v3.04c-0.49,0.24-1.16,0.36-2,0.36c-1.4,0-2.51-0.44-3.33-1.32
			c-0.82-0.88-1.23-2.12-1.23-3.72c0-1.58,0.46-2.84,1.38-3.79c0.92-0.95,2.1-1.42,3.56-1.42c1.74,0,3.21,0.35,4.41,1.04v-3.29
			c-1.26-0.46-2.72-0.69-4.37-0.69c-2.62,0-4.73,0.77-6.31,2.32c-1.58,1.54-2.37,3.54-2.37,5.99c0,2.44,0.72,4.35,2.17,5.74
			c1.45,1.39,3.42,2.08,5.93,2.08c2.26,0,4.15-0.44,5.68-1.32v-7.84h-6.63V164.42z"/>
		<path class="st4" d="M768.37,160.76c-0.13,0.3-0.24,0.71-0.34,1.23h-0.04c-0.2-0.74-0.32-1.16-0.36-1.27l-2.51-5.82h-4.01
			l4.95,10.11v5.48h3.51v-5.54l5.08-10.05h-3.72L768.37,160.76z"/>
	</g>
	<g>
		<path class="st4" d="M403.65,196.88h2.61v-1.15h-5.49v1.17h2.12v1.69h-2.12v0.29c0.95,0.46,1.7,0.84,2.24,1.16l-0.92,1.11
			c-0.44-0.29-0.88-0.56-1.33-0.79v1.86h-2.18v-2.28c-0.66,0.96-1.4,1.78-2.2,2.47c-0.32-0.36-0.7-0.73-1.15-1.11v1.92
			c0,4.44-0.67,7.73-2.01,9.87c-0.56-0.53-1.27-1.13-2.16-1.82c1.07-1.85,1.6-4.64,1.6-8.38v-9.29h8.45l-0.52-1.11l3.12-0.75
			l0.74,1.86h7.79v2.12h-3.8v1.15h3.38v1.69h-2.79c0.96,1.03,2.1,1.8,3.41,2.31c-0.58,0.68-1,1.21-1.26,1.58
			c-1.01-0.7-1.92-1.56-2.73-2.57v2.13h-2.18v-2.29c-0.78,1.18-1.6,2.12-2.46,2.82c-0.44-0.4-0.95-0.8-1.52-1.2
			c1.22-0.75,2.29-1.67,3.2-2.78h-1.84V196.88z M395.79,196.9h2.8v-1.17h-3.35v5.26c0.96-0.56,1.87-1.35,2.73-2.39h-2.18V196.9z
			 M395.36,207.86h7.05v-0.9h-6.17v-1.67h6.17v-0.97l-6.07,0.16c-0.1-0.6-0.22-1.18-0.36-1.73c3.99-0.04,8.68-0.19,14.08-0.45
			c0.01,0.03,0.14,0.63,0.36,1.82l-5.38,0.14v1.04h5.83v1.67h-5.83v0.9h7.09v1.79h-7.09v0.26c0,0.9-0.19,1.6-0.58,2.09
			c-0.38,0.49-0.93,0.77-1.65,0.84c-0.72,0.07-1.92,0.11-3.61,0.13c-0.13-0.74-0.32-1.56-0.58-2.46c1.2,0.07,2.11,0.11,2.75,0.11
			c0.63,0,0.97-0.32,1.03-0.96h-7.04V207.86z"/>
		<path class="st4" d="M482.9,205.21c1.14,0.48,2.21,0.89,3.2,1.22c-0.28,1.55-0.61,2.83-0.96,3.85c-0.5,1.48-1.99,2.22-4.49,2.22
			h-6.96c-2.62,0-3.93-1.42-3.93-4.25v-7.33c-0.57,0.33-1.15,0.66-1.75,0.98c-0.63-0.91-1.26-1.77-1.9-2.56
			c4.32-2.25,7.44-4.71,9.36-7.39h3.95l-0.68,0.92c2.05,2.58,4.98,4.67,8.78,6.26c-0.7,0.9-1.35,1.79-1.97,2.67
			c-3.69-1.82-6.61-4.07-8.76-6.75c-1.5,1.87-3.5,3.61-6.03,5.23h2.12v2.99c3.4-0.91,6.37-1.92,8.89-3.01l1.67,2.78
			c-3.16,1.18-6.68,2.22-10.55,3.12v1.71c0,1.24,0.66,1.86,1.97,1.86h5.28c1.35,0,2.14-0.54,2.37-1.62
			C482.67,207.36,482.8,206.4,482.9,205.21z"/>
		<path class="st4" d="M541.22,206.3c1.36-1.65,2.41-3.45,3.15-5.41h-2.96v-2.76h3.06v-2.39l-2.59,0.23
			c-0.14-0.97-0.31-1.82-0.49-2.54c2.95-0.23,5.67-0.52,8.16-0.88l0.81,2.5c-0.96,0.14-2,0.27-3.12,0.4v2.68h2.78v2.76h-2.78v1.84
			l1.03-0.96c1.03,0.91,1.89,1.74,2.61,2.48l-1.79,1.62c-0.7-0.83-1.32-1.52-1.84-2.08v9.22h-2.78v-7.22
			c-0.67,1.41-1.42,2.72-2.26,3.93C541.96,208.78,541.63,207.64,541.22,206.3z M549.45,205.66l6.94-0.63v-13.02h3.01v12.74
			l2.91-0.27l0.24,2.71l-3.14,0.29v5.52h-3.01v-5.26l-6.58,0.6L549.45,205.66z M551.88,198.95c1.25,0.93,2.47,1.93,3.65,3.01
			l-2.01,1.94c-0.97-1.03-2.12-2.06-3.46-3.1L551.88,198.95z M552.61,193.53c1.08,0.8,2.29,1.79,3.61,2.99l-1.99,1.97
			c-1.07-1.14-2.21-2.19-3.42-3.14L552.61,193.53z"/>
		<path class="st4" d="M616.56,195.73h2.39v-3.76h2.76v3.76h1.82v2.78h-1.82v3.22l1.92-0.42c-0.07,1.22-0.1,2.16-0.09,2.8
			l-1.84,0.45v5.6c0,0.93-0.23,1.63-0.69,2.1c-0.46,0.47-1.71,0.7-3.75,0.7c-0.14-0.71-0.39-1.68-0.73-2.91
			c0.56,0.04,1.03,0.06,1.43,0.06c0.38,0,0.64-0.08,0.78-0.23c0.14-0.16,0.2-0.43,0.2-0.81v-3.83l-2.31,0.59l-0.3-3.06l2.61-0.48
			v-3.77h-2.39V195.73z M637.09,197.59h-5.21v2.37h4.68v2.59c-0.86,2.07-2.13,3.91-3.8,5.52c1.42,0.81,3.03,1.49,4.81,2.02
			c-0.7,1.21-1.28,2.17-1.73,2.88c-2.01-0.75-3.85-1.72-5.51-2.92c-1.7,1.18-3.69,2.19-5.96,3.04c-0.47-0.8-1.03-1.72-1.69-2.78
			c1.99-0.66,3.73-1.43,5.2-2.3c-1.2-1.15-2.28-2.44-3.26-3.88l2.41-1.43c0.87,1.37,1.94,2.58,3.23,3.63
			c1.3-1.11,2.27-2.35,2.93-3.72h-9.12v-2.67h4.74v-2.37h-4.7v-2.56h4.7v-3.06h3.08v3.06h5.21V197.59z"/>
	</g>
</g>
</svg>
